# xmcd
#
# Track frame offsets: 
#        150
#        11373
#        25753
#        38788
#        47655
#        60945
#        75303
#        90133
#        101948
#        116863
#        128008
#        140815
#        153263
#        162273
#        172318
#        188028
#        204448
#
# Disc length: 2860 seconds
#
# Revision: 3
# Processed by: cddbd v1.5.2PL0 Copyright (c) Steve Scherf et al.
# Submitted via: ExactAudioCopy v1.0b3
#
DISCID=d30b2a11
DTITLE=Various Artist - テレビアニメ スーパーヒストリー Vol.05
DYEAR=1998
DGENRE=Anime
TTITLE0=吉田よしみ - 大ちゃん数え唄
TTITLE1=吉田よしみ - いなかっぺ大将
TTITLE2=堀江美都子 - 魔法のマコちゃん
TTITLE3=堀江美都子、コロムビア・メール・ハーモニー - ボクはマコについてゆく
TTITLE4=加世田直人、コロムビア・メール・ハーモニー - カバトットのサンバ
TTITLE5=面高陽子、ザ・モンジュ - カバトット
TTITLE6=桜井妙子、ヤング･フレッシュ - ミスター・アンデルセン
TTITLE7=山田康雄、ヤング･フレッシュ - ズッコのうた
TTITLE8=幹和之、コロムビア男声合唱団 - 決断
TTITLE9=コロムビア男声合唱団 - 男ぶし
TTITLE10=スリー・グレイセス、ボーカル･ショップ - さすらいの太陽
TTITLE11=堀江美都子 - 心のうた
TTITLE12=堀絢子、ニューロイヤル - オバケのQ太郎
TTITLE13=ザ・グリンピース - オバQえかきうた
TTITLE14=アイドルフォー - 天才バカボン
TTITLE15=出原千花子、ヤング･フレッシュ - ふしぎなメルモ
TTITLE16=桜井妙子 - 幸せをはこぶメルモ
EXTD=
EXTT0=
EXTT1=
EXTT2=
EXTT3=
EXTT4=
EXTT5=
EXTT6=
EXTT7=
EXTT8=
EXTT9=
EXTT10=
EXTT11=
EXTT12=
EXTT13=
EXTT14=
EXTT15=
EXTT16=
PLAYORDER=
